Gait_medial_08_analogdata.mot
version=1
nRows=38
nColumns=19
inDegrees=yes
endheader
time	1_ground_force_vx	1_ground_force_vy	1_ground_force_vz	1_ground_force_px	1_ground_force_py	1_ground_force_pz	1_ground_torque_x	1_ground_torque_y	1_ground_torque_z	2_ground_force_vx	2_ground_force_vy	2_ground_force_vz	2_ground_force_px	2_ground_force_py	2_ground_force_pz	2_ground_torque_x	2_ground_torque_y	2_ground_torque_z
0.230000	-24.291371	439.335449	-85.581859	-0.140511	0.000000	-0.355673	-0.090373	1.634495	-0.318397	0.000000	0.000000	-0.000000	-0.200000	0.000000	0.302000	0.000000	0.000000	-0.000000
0.231000	-24.558628	439.685364	-85.404926	-0.140210	0.000000	-0.356656	-0.083051	1.486908	-0.288818	0.000000	0.000000	-0.000000	-0.200000	0.000000	0.302000	0.000000	0.000000	-0.000000
0.232000	-24.558628	438.635620	-85.227985	-0.138792	0.000000	-0.356751	-0.065438	1.168767	-0.227094	0.000000	0.000000	-0.000000	-0.200000	0.000000	0.302000	0.000000	0.000000	-0.000000
0.233000	-26.162173	439.335449	-84.520230	-0.139793	0.000000	-0.357249	-0.094384	1.584970	-0.304920	0.000000	0.000000	-0.000000	-0.200000	0.000000	0.302000	0.000000	0.000000	-0.000000
0.234000	-25.449486	450.183044	-84.785641	-0.141092	0.000000	-0.354278	-0.112063	1.982312	-0.373341	0.000000	0.000000	-0.000000	-0.200000	0.000000	0.302000	0.000000	0.000000	-0.000000
0.235000	-26.696688	448.433441	-85.670330	-0.140347	0.000000	-0.354687	-0.108654	1.825095	-0.348673	0.000000	0.000000	-0.000000	-0.200000	0.000000	0.302000	0.000000	0.000000	-0.000000
0.236000	-26.429431	450.183044	-84.343296	-0.139707	0.000000	-0.354953	-0.094816	1.615036	-0.302582	0.000000	0.000000	-0.000000	-0.200000	0.000000	0.302000	0.000000	0.000000	-0.000000
0.237000	-25.805830	451.232819	-85.139515	-0.138340	0.000000	-0.355672	-0.109500	1.914689	-0.361267	0.000000	0.000000	-0.000000	-0.200000	0.000000	0.302000	0.000000	0.000000	-0.000000
0.238000	-27.320288	452.982422	-84.962582	-0.139905	0.000000	-0.352750	-0.122755	2.035336	-0.381753	0.000000	0.000000	-0.000000	-0.200000	0.000000	0.302000	0.000000	0.000000	-0.000000
0.239000	-26.785775	458.931122	-85.227986	-0.140083	0.000000	-0.354249	-0.114780	1.966563	-0.365210	0.000000	0.000000	-0.000000	-0.200000	0.000000	0.302000	0.000000	0.000000	-0.000000
0.240000	-27.053030	462.430359	-85.051045	-0.140060	0.000000	-0.354066	-0.128108	2.189816	-0.402755	0.000000	0.000000	-0.000000	-0.200000	0.000000	0.302000	0.000000	0.000000	-0.000000
0.241000	-26.696688	463.130188	-84.343296	-0.138925	0.000000	-0.354516	-0.098815	1.714236	-0.312189	0.000000	0.000000	-0.000000	-0.200000	0.000000	0.302000	0.000000	0.000000	-0.000000
0.242000	-26.518517	468.728943	-85.670330	-0.141323	0.000000	-0.354437	-0.137445	2.429414	-0.444028	0.000000	0.000000	-0.000000	-0.200000	0.000000	0.302000	0.000000	0.000000	-0.000000
0.243000	-28.389319	473.627869	-84.874112	-0.140171	0.000000	-0.353407	-0.146043	2.436480	-0.436617	0.000000	0.000000	-0.000000	-0.200000	0.000000	0.302000	0.000000	0.000000	-0.000000
0.244000	-26.429431	481.326172	-84.166355	-0.139993	0.000000	-0.353010	-0.136485	2.485633	-0.434646	0.000000	0.000000	-0.000000	-0.200000	0.000000	0.302000	0.000000	0.000000	-0.000000
0.245000	-25.271315	482.026001	-84.520229	-0.139664	0.000000	-0.352740	-0.135239	2.579551	-0.452308	0.000000	0.000000	-0.000000	-0.200000	0.000000	0.302000	0.000000	0.000000	-0.000000
0.246000	-25.449486	493.923370	-85.847271	-0.139933	0.000000	-0.351861	-0.145078	2.815674	-0.489383	0.000000	0.000000	-0.000000	-0.200000	0.000000	0.302000	0.000000	0.000000	-0.000000
0.247000	-23.578684	496.022919	-85.316456	-0.141207	0.000000	-0.351830	-0.146949	3.091359	-0.531717	0.000000	0.000000	-0.000000	-0.200000	0.000000	0.302000	0.000000	0.000000	-0.000000
0.248000	-22.776913	504.071136	-83.900943	-0.140590	0.000000	-0.350278	-0.148805	3.293168	-0.548137	0.000000	0.000000	-0.000000	-0.200000	0.000000	0.302000	0.000000	0.000000	-0.000000
0.249000	-24.024113	511.069580	-84.874111	-0.140533	0.000000	-0.350753	-0.146619	3.119047	-0.517985	0.000000	0.000000	-0.000000	-0.200000	0.000000	0.302000	0.000000	0.000000	-0.000000
0.250000	-24.024113	511.069580	-85.316456	-0.139261	0.000000	-0.350547	-0.133486	2.839669	-0.474046	0.000000	0.000000	-0.000000	-0.200000	0.000000	0.302000	0.000000	0.000000	-0.000000
0.251000	-22.598740	525.766296	-83.989414	-0.139940	0.000000	-0.349366	-0.163527	3.804493	-0.607755	0.000000	0.000000	-0.000000	-0.200000	0.000000	0.302000	0.000000	0.000000	-0.000000
0.252000	-23.935028	527.166016	-86.466556	-0.140460	0.000000	-0.349028	-0.145892	3.213260	-0.527044	0.000000	0.000000	-0.000000	-0.200000	0.000000	0.302000	0.000000	0.000000	-0.000000
0.253000	-21.886055	537.663696	-86.112674	-0.140676	0.000000	-0.348388	-0.133270	3.273979	-0.524363	0.000000	0.000000	-0.000000	-0.200000	0.000000	0.302000	0.000000	0.000000	-0.000000
0.254000	-25.360401	543.612366	-87.970532	-0.140614	0.000000	-0.348286	-0.136134	2.918103	-0.472225	0.000000	0.000000	-0.000000	-0.200000	0.000000	0.302000	0.000000	0.000000	-0.000000
0.255000	-26.251259	543.962280	-88.412876	-0.140164	0.000000	-0.347236	-0.132382	2.743145	-0.445857	0.000000	0.000000	-0.000000	-0.200000	0.000000	0.302000	0.000000	0.000000	-0.000000
0.256000	-27.053030	555.159790	-89.120632	-0.140677	0.000000	-0.346980	-0.152356	3.126520	-0.501905	0.000000	0.000000	-0.000000	-0.200000	0.000000	0.302000	0.000000	0.000000	-0.000000
0.257000	-25.984001	556.209595	-87.174313	-0.140580	0.000000	-0.346706	-0.140650	3.010723	-0.471868	0.000000	0.000000	-0.000000	-0.200000	0.000000	0.302000	0.000000	0.000000	-0.000000
0.258000	-28.032974	562.858093	-90.005322	-0.140874	0.000000	-0.346151	-0.138894	2.788770	-0.445946	0.000000	0.000000	-0.000000	-0.200000	0.000000	0.302000	0.000000	0.000000	-0.000000
0.259000	-29.012918	569.506653	-89.562977	-0.141289	0.000000	-0.346413	-0.135947	2.668569	-0.419670	0.000000	0.000000	-0.000000	-0.200000	0.000000	0.302000	0.000000	0.000000	-0.000000
0.260000	-28.834747	574.055664	-90.270733	-0.140896	0.000000	-0.344992	-0.127956	2.547412	-0.400583	0.000000	0.000000	-0.000000	-0.200000	0.000000	0.302000	0.000000	0.000000	-0.000000
0.261000	-29.725605	579.654419	-89.474507	-0.141568	0.000000	-0.345604	-0.137932	2.689704	-0.415178	0.000000	0.000000	-0.000000	-0.200000	0.000000	0.302000	0.000000	0.000000	-0.000000
0.262000	-29.191089	582.453796	-88.943692	-0.141499	0.000000	-0.344684	-0.143292	2.859120	-0.436602	0.000000	0.000000	-0.000000	-0.200000	0.000000	0.302000	0.000000	0.000000	-0.000000
0.263000	-30.794634	585.953003	-90.005322	-0.141607	0.000000	-0.344382	-0.122637	2.333507	-0.358438	0.000000	0.000000	-0.000000	-0.200000	0.000000	0.302000	0.000000	0.000000	-0.000000
0.264000	-31.685493	590.851929	-90.890019	-0.142440	0.000000	-0.344259	-0.129526	2.415324	-0.371546	0.000000	0.000000	-0.000000	-0.200000	0.000000	0.302000	0.000000	0.000000	-0.000000
0.265000	-31.685493	592.951477	-89.828389	-0.141573	0.000000	-0.342544	-0.123089	2.303444	-0.348957	0.000000	0.000000	-0.000000	-0.200000	0.000000	0.302000	0.000000	0.000000	-0.000000
0.266000	-31.774578	585.253174	-88.766759	-0.141057	0.000000	-0.344517	-0.124357	2.290520	-0.347409	0.000000	0.000000	-0.000000	-0.200000	0.000000	0.302000	0.000000	0.000000	-0.000000
0.267000	-30.171034	598.900146	-88.855222	-0.141942	0.000000	-0.342966	-0.124106	2.463522	-0.365498	0.000000	0.000000	-0.000000	-0.200000	0.000000	0.302000	0.000000	0.000000	-0.000000
